# xmcd
#
# Track frame offsets:
#	150
#	13087
#	27412
#	40838
#	53250
#	65550
#	78524
#	92024
#	104211
#	117899
#	129299
#	144250
#	158229
#	170681
#	185549
#	199252
#
# Disc length: 2835 seconds
#
# Revision: 0
# Processed by: cddbd v1.5.2PL0 Copyright (c) Steve Scherf et al.
# Submitted via: EasyCDDAExtractor 15.0.0.1
#
DISCID=d80b1110
DTITLE=Cesar and Alessandro - Ao vivo
DYEAR=1900
DGENRE=
TTITLE0=Festa do Cabide
TTITLE1=Recaidas
TTITLE2=Onkoto
TTITLE3=Bala Perdida
TTITLE4=Casa Liberada
TTITLE5=Amor Pra Vida Inteira
TTITLE6=Pulei o Corguinho
TTITLE7=Vai Passar o Que Eu Passei
TTITLE8=Amor Sem Juizo
TTITLE9=So Voce
TTITLE10=Novembro Sem Voce
TTITLE11=Porta na Cara
TTITLE12=Eu e você
TTITLE13=Arco-Iris
TTITLE14=Bola de Cristal
TTITLE15=Uma Vida e Pouco
EXTD=
EXTT0=
EXTT1=
EXTT2=
EXTT3=
EXTT4=
EXTT5=
EXTT6=
EXTT7=
EXTT8=
EXTT9=
EXTT10=
EXTT11=
EXTT12=
EXTT13=
EXTT14=
EXTT15=
PLAYORDER=
